<mxfile host="app.diagrams.net" modified="2022-05-31T09:33:45.043Z" agent="5.0 (Windows NT 10.0; Win64; x64) AppleWebKit/537.36 (KHTML, like Gecko) Chrome/101.0.4951.64 Safari/537.36 Edg/101.0.1210.53" etag="1HdV6OoTe9hLGKDgQ8cX" version="18.1.3" type="github">
  <diagram id="jbeJmUmZMhpJFFIEOEIp" name="第 1 页">
    <mxGraphModel dx="982" dy="534" grid="0" gridSize="10" guides="1" tooltips="1" connect="1" arrows="1" fold="1" page="1" pageScale="1" pageWidth="827" pageHeight="1169" math="0" shadow="0">
      <root>
        <mxCell id="0" />
        <mxCell id="1" parent="0" />
        <mxCell id="lVPkfKjw_wGQuSuuyutd-20" value="&lt;span style=&quot;&quot;&gt;底半部机制&lt;/span&gt;" style="ellipse;whiteSpace=wrap;html=1;align=center;newEdgeStyle={&quot;edgeStyle&quot;:&quot;entityRelationEdgeStyle&quot;,&quot;startArrow&quot;:&quot;none&quot;,&quot;endArrow&quot;:&quot;none&quot;,&quot;segment&quot;:10,&quot;curved&quot;:1};treeFolding=1;treeMoving=1;" vertex="1" parent="1">
          <mxGeometry x="284" y="418" width="100" height="40" as="geometry" />
        </mxCell>
        <mxCell id="lVPkfKjw_wGQuSuuyutd-21" value="tasklet" style="whiteSpace=wrap;html=1;rounded=1;arcSize=50;align=center;verticalAlign=middle;strokeWidth=1;autosize=1;spacing=4;treeFolding=1;treeMoving=1;newEdgeStyle={&quot;edgeStyle&quot;:&quot;entityRelationEdgeStyle&quot;,&quot;startArrow&quot;:&quot;none&quot;,&quot;endArrow&quot;:&quot;none&quot;,&quot;segment&quot;:10,&quot;curved&quot;:1};" vertex="1" parent="1">
          <mxGeometry x="425" y="340" width="80" height="30" as="geometry" />
        </mxCell>
        <mxCell id="lVPkfKjw_wGQuSuuyutd-22" value="" style="edgeStyle=entityRelationEdgeStyle;startArrow=none;endArrow=none;segment=10;curved=1;rounded=0;exitX=1;exitY=0.5;exitDx=0;exitDy=0;" edge="1" target="lVPkfKjw_wGQuSuuyutd-21" parent="1" source="lVPkfKjw_wGQuSuuyutd-20">
          <mxGeometry relative="1" as="geometry">
            <mxPoint x="334" y="414" as="sourcePoint" />
          </mxGeometry>
        </mxCell>
        <mxCell id="lVPkfKjw_wGQuSuuyutd-26" value="工作队列" style="whiteSpace=wrap;html=1;rounded=1;arcSize=50;align=center;verticalAlign=middle;strokeWidth=1;autosize=1;spacing=4;treeFolding=1;treeMoving=1;newEdgeStyle={&quot;edgeStyle&quot;:&quot;entityRelationEdgeStyle&quot;,&quot;startArrow&quot;:&quot;none&quot;,&quot;endArrow&quot;:&quot;none&quot;,&quot;segment&quot;:10,&quot;curved&quot;:1};" vertex="1" parent="1">
          <mxGeometry x="425" y="405" width="90" height="30" as="geometry" />
        </mxCell>
        <mxCell id="lVPkfKjw_wGQuSuuyutd-27" value="" style="edgeStyle=entityRelationEdgeStyle;startArrow=none;endArrow=none;segment=10;curved=1;rounded=0;exitX=1;exitY=0.5;exitDx=0;exitDy=0;" edge="1" target="lVPkfKjw_wGQuSuuyutd-26" parent="1" source="lVPkfKjw_wGQuSuuyutd-20">
          <mxGeometry relative="1" as="geometry">
            <mxPoint x="404" y="447" as="sourcePoint" />
          </mxGeometry>
        </mxCell>
        <mxCell id="lVPkfKjw_wGQuSuuyutd-28" value="软中断" style="whiteSpace=wrap;html=1;rounded=1;arcSize=50;align=center;verticalAlign=middle;strokeWidth=1;autosize=1;spacing=4;treeFolding=1;treeMoving=1;newEdgeStyle={&quot;edgeStyle&quot;:&quot;entityRelationEdgeStyle&quot;,&quot;startArrow&quot;:&quot;none&quot;,&quot;endArrow&quot;:&quot;none&quot;,&quot;segment&quot;:10,&quot;curved&quot;:1};" vertex="1" parent="1">
          <mxGeometry x="425" y="458" width="80" height="30" as="geometry" />
        </mxCell>
        <mxCell id="lVPkfKjw_wGQuSuuyutd-29" value="" style="edgeStyle=entityRelationEdgeStyle;startArrow=none;endArrow=none;segment=10;curved=1;rounded=0;exitX=1;exitY=0.5;exitDx=0;exitDy=0;" edge="1" target="lVPkfKjw_wGQuSuuyutd-28" parent="1" source="lVPkfKjw_wGQuSuuyutd-20">
          <mxGeometry relative="1" as="geometry">
            <mxPoint x="408" y="510" as="sourcePoint" />
          </mxGeometry>
        </mxCell>
        <mxCell id="lVPkfKjw_wGQuSuuyutd-30" value="threaded_irq" style="whiteSpace=wrap;html=1;rounded=1;arcSize=50;align=center;verticalAlign=middle;strokeWidth=1;autosize=1;spacing=4;treeFolding=1;treeMoving=1;newEdgeStyle={&quot;edgeStyle&quot;:&quot;entityRelationEdgeStyle&quot;,&quot;startArrow&quot;:&quot;none&quot;,&quot;endArrow&quot;:&quot;none&quot;,&quot;segment&quot;:10,&quot;curved&quot;:1};" vertex="1" parent="1">
          <mxGeometry x="425" y="518" width="110" height="30" as="geometry" />
        </mxCell>
        <mxCell id="lVPkfKjw_wGQuSuuyutd-31" value="" style="edgeStyle=entityRelationEdgeStyle;startArrow=none;endArrow=none;segment=10;curved=1;rounded=0;exitX=1;exitY=0.5;exitDx=0;exitDy=0;" edge="1" target="lVPkfKjw_wGQuSuuyutd-30" parent="1" source="lVPkfKjw_wGQuSuuyutd-20">
          <mxGeometry relative="1" as="geometry">
            <mxPoint x="395" y="560" as="sourcePoint" />
          </mxGeometry>
        </mxCell>
      </root>
    </mxGraphModel>
  </diagram>
</mxfile>
